<?xml version="1.0" encoding="utf-8"?>
<!-- Generator: Adobe Illustrator 23.0.3, SVG Export Plug-In . SVG Version: 6.00 Build 0)  -->
<svg version="1.1" id="Layer_1" xmlns="http://www.w3.org/2000/svg" xmlns:xlink="http://www.w3.org/1999/xlink" x="0px" y="0px"
	 viewBox="0 0 595.3 261" style="enable-background:new 0 0 595.3 261;" xml:space="preserve">
<style type="text/css">
	.st0{fill-rule:evenodd;clip-rule:evenodd;fill:#FFFFFF;}
	.st1{fill-rule:evenodd;clip-rule:evenodd;fill:#FFFFFF;}
	.st2{fill:#FFFFFF;}
	.st3{fill:#FFFFFF;}
	.st4{fill:#FFFFFF;}
</style>
<g>
	<g>
		<path class="st0" d="M855.1,245.9c0.7,0,6.4,0,8.1,0c0.2,0,0.4,0.1,0.5,0.2c0.3,0.4,0.2,2.4,0.2,2.4v84.9c0,0.3-0.1,0.6-0.3,0.7
			c-0.1,0.1-0.3,0-0.5,0c-0.4-0.2-0.8-0.5-1.1-0.7c0.6,0.4-7.1-5-8.1-5.9c-0.2-0.1-0.3-0.4-0.4-0.7c-0.1-0.6-0.1-1.8-0.1-1.8v-77.1
			c0,0-0.1-1.2,0.1-1.5C854,245.9,854.4,245.9,855.1,245.9 M830.9,245.9c0.7,0,6.4,0,8.1,0c0.2,0,0.4,0.1,0.5,0.2
			c0.3,0.4,0.2,2.4,0.2,2.4v67.6c0,0.3-0.1,0.6-0.3,0.7c-0.1,0.1-0.3,0-0.4,0c-0.4-0.2-0.8-0.5-1.1-0.7c0.6,0.4-7.1-5-8.1-5.9
			c-0.2-0.1-0.3-0.4-0.4-0.7c-0.1-0.6-0.1-1.8-0.1-1.8v-59.8c0,0-0.1-1.2,0.1-1.5C829.9,245.9,830.3,245.9,830.9,245.9 M843,245.9
			c0.7,0,6.4,0,8.1,0c0.2,0,0.4,0.1,0.5,0.2c0.3,0.4,0.2,2.4,0.2,2.4v76.2c0,0.3-0.1,0.6-0.3,0.7c-0.1,0.1-0.3,0-0.4,0
			c-0.4-0.2-0.8-0.5-1.1-0.7c0.6,0.4-7.1-5-8.1-5.9c-0.2-0.1-0.3-0.4-0.4-0.7c-0.1-0.6-0.1-1.8-0.1-1.8v-68.4c0,0-0.1-1.2,0.1-1.5
			C842,245.9,842.3,245.9,843,245.9 M819,245.9c0.7,0,6.4,0,8.1,0c0.2,0,0.4,0.1,0.5,0.2c0.3,0.4,0.2,2.4,0.2,2.4v58.9
			c0,0.3-0.1,0.6-0.3,0.7c-0.1,0.1-0.3,0-0.5,0c-0.4-0.2-0.8-0.5-1.1-0.7c0.6,0.4-7.1-5-8.1-5.9c-0.2-0.1-0.3-0.4-0.4-0.7
			c-0.1-0.6-0.1-1.8-0.1-1.8v-51.1c0,0-0.1-1.2,0.1-1.5C817.9,245.9,818.3,245.9,819,245.9 M806.9,258.4c0.7,0,6.4,0,8.1,0
			c0.2,0,0.4,0.1,0.5,0.2c0.3,0.4,0.2,2.4,0.2,2.4V299c0,0.3-0.1,0.6-0.3,0.7c-0.1,0.1-0.3,0-0.4,0c-0.4-0.2-0.8-0.5-1.1-0.7
			c0.6,0.4-7.1-5-8.1-5.9c-0.2-0.1-0.3-0.4-0.4-0.7c-0.1-0.6-0.1-1.8-0.1-1.8v-30.1c0,0-0.1-1.2,0.1-1.5
			C805.9,258.4,806.3,258.4,806.9,258.4 M874.7,245.9c-0.7,0-6.4,0-8.1,0c-0.2,0-0.4,0.1-0.5,0.2c-0.3,0.4-0.2,2.4-0.2,2.4v84.9
			c0,0.3,0.1,0.6,0.3,0.7c0.1,0.1,0.3,0,0.5,0c0.4-0.2,0.8-0.5,1.1-0.7c-0.6,0.4,7.1-5,8.1-5.9c0.2-0.1,0.3-0.4,0.4-0.7
			c0.1-0.6,0.1-1.8,0.1-1.8v-77.1c0,0,0.1-1.2-0.1-1.5C875.7,245.9,875.4,245.9,874.7,245.9 M898.9,245.9c-0.7,0-6.4,0-8.1,0
			c-0.2,0-0.4,0.1-0.5,0.2c-0.3,0.4-0.2,2.4-0.2,2.4v67.6c0,0.3,0.1,0.6,0.3,0.7c0.1,0.1,0.3,0,0.4,0c0.4-0.2,0.8-0.5,1.1-0.7
			c-0.6,0.4,7.1-5,8.1-5.9c0.2-0.1,0.3-0.4,0.4-0.7c0.1-0.6,0.1-1.8,0.1-1.8v-59.8c0,0,0.1-1.2-0.1-1.5
			C899.9,245.9,899.5,245.9,898.9,245.9 M886.8,245.9c-0.7,0-6.4,0-8.1,0c-0.2,0-0.4,0.1-0.5,0.2c-0.3,0.4-0.2,2.4-0.2,2.4v76.2
			c0,0.3,0.1,0.6,0.3,0.7c0.1,0.1,0.3,0,0.4,0c0.4-0.2,0.8-0.5,1.1-0.7c-0.6,0.4,7.1-5,8.1-5.9c0.1-0.1,0.3-0.4,0.4-0.7
			c0.1-0.6,0.1-1.8,0.1-1.8v-68.4c0,0,0.1-1.2-0.1-1.5C887.8,245.9,887.5,245.9,886.8,245.9 M910.8,245.9c-0.7,0-6.4,0-8.2,0
			c-0.1,0-0.4,0.1-0.5,0.2c-0.3,0.4-0.2,2.4-0.2,2.4v58.9c0,0.3,0.1,0.6,0.3,0.7c0.1,0.1,0.3,0,0.4,0c0.4-0.2,0.8-0.5,1.1-0.7
			c-0.6,0.4,7.1-5,8.1-5.9c0.2-0.1,0.3-0.4,0.4-0.7c0.1-0.6,0.1-1.8,0.1-1.8v-51.1c0,0,0.1-1.2-0.1-1.5
			C911.9,245.9,911.5,245.9,910.8,245.9 M922.9,245.9c-0.7,0-6.4,0-8.1,0c-0.2,0-0.4,0.1-0.5,0.2c-0.3,0.4-0.2,2.4-0.2,2.4V299
			c0,0.3,0.1,0.6,0.3,0.7c0.1,0.1,0.3,0,0.4,0c0.4-0.2,0.8-0.5,1.1-0.7c-0.6,0.4,7.1-5,8.1-5.9c0.2-0.1,0.3-0.4,0.4-0.7
			c0.1-0.6,0.1-1.8,0.1-1.8v-42.6c0,0,0.1-1.1-0.1-1.5C923.9,245.9,923.5,245.9,922.9,245.9"/>
		<path class="st1" d="M925.8,241.8c-0.6-0.7-1-1.4-1-2.7c0-1.3-0.1-24.4-0.1-24.4s0-0.4-0.2-0.9c-0.5-1.4-1.4-2.5-2.5-3.1
			c-0.2-0.1-0.7-0.2-1.3-0.3c-0.6-0.1-12.8-0.1-12.8-0.1c-0.6,0-1.5,0-2,0.2c-0.7,0.2-1.5,1.1-2.1,1.5c-0.1,0.1-0.6,0.5-0.5,0.8
			c0.1,0.2,1.6,0.1,2.1,0.1h5.6c0.6,0,1.3,0,1.8,0.2c0.6,0.2,1.1,0.8,1.3,1.4c0.1,0.6,0.1,1.2,0.1,1.9l0,6.2h-5.3
			c-0.5,0-1.1,0-1.6,0c-0.6,0-1.2,0-1.9,0.1c-1.2,0.1-2.3,0.7-2.8,1.6c-0.2,0.4-0.5,1.1-0.5,2.5c0,0.6,0,9.9,0,11.6
			c0,0.4-0.1,0.9,0,1.3c0.2,1.2,1,2.3,2,2.8c0.5,0.2,1.1,0.2,1.8,0.2l19.9-0.1c0.2,0,0.4-0.1,0.4-0.3
			C926.1,242.1,925.9,241.9,925.8,241.8z M914.1,236.6h-1.8v-7.8h1.8L914.1,236.6z M900.3,214c-0.1-0.5-0.4-1.1-0.6-1.5
			c-0.8-1.2-2.2-2.2-4.1-2.4c-1-0.1-4.1-0.1-4.7-0.1h-20.9l0,0l-3.2,0c0,0-0.5,0.2-0.7,0.6c-0.2,0.5-0.2,1-0.2,1s-0.1,24.6-0.1,26.8
			c0,2.2-0.2,2.7,0.1,3.6c0,0.1,0,0.2,0.1,0.3c0.2,0.1,0.5,0.2,0.7,0.2c1.1,0.1,6.6,0,8.1,0c0.4,0,0.7,0,1.1,0
			c0.1,0,0.3-0.1,0.3-0.2c0.2-0.4-0.2-0.8-0.2-1.4v-24.8h1.6c0,0.5,0,0.9,0,1.5v21.7c0,0,0,1.8,0.3,2.4c0.2,0.3,0.6,0.6,0.9,0.7
			c1,0.3,6.8,0.1,8.4,0.1c0.3,0,0.5,0,0.8-0.1c0.1,0,0.2,0,0.3-0.2c0.1-0.2-0.3-0.7-0.3-2.3l0-23.9h1.6l0,22.5
			c0,1.5-0.3,2.4,0.4,3.4c0.2,0.2,0.6,0.5,0.9,0.5c0.6,0.1,8,0.2,8.6,0.1c0.6-0.1,0.6-0.7,0.6-1.4c0-1.4,0-23.3,0-25
			C900.4,216.2,900.4,214.6,900.3,214z M850.9,211.3c-1.1-1.1-2.6-1.4-4.6-1.3h-16.9v0c-0.2,0-0.5,0-0.6,0.1c-0.2,0-0.3,0.1-0.4,0.3
			c0,0.1,0.6,0.9,0.8,1.5c0.1,0.3,0.2,0.7,0.3,1c0.1,0.5,0.1,1.2,0.1,1.2v26.3c0,0-0.1,1.5,0.1,1.9c0,0,0,0,0.1,0
			c0.1,0.1,0.2,0.2,0.4,0.2c0.4,0.1,8.6,0.2,9.2,0c0.3-0.1,0.4-0.3,0.4-0.6c0.2-1,0.1-3.1,0.1-3.1l0-22.6h1.9l0,5c0,0,0,0.6,0.1,0.8
			c0,0,0,0,0.1,0c0,0,0,0,0,0.1c0.3,0.2,8.7,0.4,9.4,0.2c0.4-0.1,0.4-0.5,0.5-1c0.1-2-0.1-4,0.1-6.1c0.1-0.8,0-2-0.2-2.7
			C851.6,212,851.2,211.6,850.9,211.3z M863.7,211c0,0,0-0.1,0-0.1c-0.2-0.3-0.7-0.6-1.1-0.7c-0.4-0.1-4-0.1-5.3-0.1
			c-0.6,0-4.2,0-4.4,0.2c-0.2,0.2,0,0.5,0.1,0.7c0.4,0.9,0.5,1.9,0.5,3.4c0,1.5-0.1,26.2-0.1,26.2s-0.1,1.7,0.5,1.8
			c1.7,0.3,8,0.3,9.1,0.1c0.2,0,0.4-0.1,0.5-0.2c0.1-0.1,0.1-0.1,0.1-0.3c0.1-0.4,0.1-1.5,0.1-1.5s0.1-25.7,0.1-26.9
			C864,212.5,864,211.6,863.7,211z M827.7,213.8c0-0.4-0.4-1.7-0.8-2.3c-1.1-1.4-3.1-1.5-5.7-1.5c0,0-13.7,0-15.6,0
			c-2.1,0-1.2,0.3-0.7,1.3c0.2,0.4,0.4,1.6,0.4,1.6v41.1c0,0.2-0.3,0.7-0.2,0.9l0,0c0.5,0.3,1.4,0.3,1.4,0.3h7.3c0,0,1,0.1,1.3-0.1
			c0.1-0.1,0.2-0.2,0.3-0.3c0.1-0.2,0.1-0.8,0.1-0.8v-11.6h3.9c1.1,0.1,2.2,0,3.3,0c0.6,0,1.4,0.1,1.9-0.1c1.4-0.3,2.4-1.6,2.7-2.9
			c0.3-1.3,0.2-5.5,0.2-5.5L827.7,213.8z M817.4,236.4h-1.8v-20.1l0-0.1h1.8V236.4z M853.6,205.2c0,0.3,0,0.6,0,0.9
			c0.1,0.4,0.3,0.8,0.6,1c0.2,0.2,0.5,0.4,0.8,0.5c1,0.2,2.1,0,3.2,0.1c1,0.1,2.1,0,3.2,0c0.5,0,1.3,0.1,1.8-0.1
			c0.2,0,0.4-0.2,0.5-0.3c0.1-0.2,0-0.5,0.1-0.8c0.1-1.4,0-3,0-4.5c0-0.7,0.1-1.6-0.1-2.2c-0.1-0.4-0.4-0.8-0.7-1
			c-0.8-0.6-2.5-0.3-3.8-0.3c-0.7,0-1.7-0.1-2.4,0c-0.6,0-1.3-0.1-2,0c-0.3,0-1.1,0-1.2,0.2l0,0.1c-0.1,0.2,0.1,0.6,0.1,0.8
			C853.8,201.5,853.5,203.4,853.6,205.2L853.6,205.2z"/>
	</g>
	<path class="st2" d="M964.1,236.7v-10.3h5.7c1.6,0,3-0.2,4.3-0.6c1.2-0.4,2.3-1,3.1-1.7c0.9-0.7,1.5-1.6,2-2.7
		c0.4-1.1,0.7-2.3,0.7-3.6c0-1.3-0.2-2.4-0.7-3.5c-0.4-1.1-1.1-2-2-2.8c-0.9-0.8-1.9-1.4-3.1-1.8c-1.2-0.4-2.7-0.7-4.3-0.7h-10.5
		v27.7C959.3,236.7,964.1,236.7,964.1,236.7z M969.8,222.6h-5.7v-9.7h5.7c0.9,0,1.7,0.1,2.4,0.4c0.7,0.3,1.2,0.6,1.6,1.1
		c0.4,0.5,0.7,1,0.9,1.6c0.2,0.6,0.3,1.2,0.3,1.9c0,0.7-0.1,1.3-0.3,1.9c-0.2,0.6-0.5,1.1-0.9,1.5c-0.4,0.4-1,0.7-1.6,1
		C971.5,222.5,970.7,222.6,969.8,222.6z M990.2,237.1c1.3,0,2.4-0.2,3.4-0.6c0.9-0.4,1.7-1,2.4-1.8l0.1,2h4.3v-20.6h-4.6v14.8
		c-0.4,0.7-0.9,1.3-1.6,1.8c-0.7,0.4-1.7,0.6-2.9,0.6c-0.4,0-0.8-0.1-1.2-0.2c-0.4-0.1-0.7-0.3-1-0.6c-0.3-0.3-0.5-0.7-0.7-1.2
		c-0.2-0.5-0.3-1.1-0.3-1.9v-13.4h-4.6v13.3c0,1.4,0.2,2.5,0.5,3.5c0.3,1,0.8,1.8,1.4,2.4c0.6,0.6,1.3,1.1,2.1,1.4
		C988.3,237,989.2,237.1,990.2,237.1z M1015,237.1c1.3,0,2.4-0.3,3.4-0.8c1-0.5,1.8-1.2,2.5-2.2s1.2-2,1.5-3.3
		c0.3-1.3,0.5-2.7,0.5-4.2v-0.4c0-1.5-0.2-2.9-0.5-4.2c-0.3-1.3-0.8-2.4-1.5-3.3c-0.7-0.9-1.5-1.6-2.5-2.2c-1-0.5-2.2-0.8-3.5-0.8
		c-1.2,0-2.2,0.2-3.1,0.6c-0.9,0.4-1.6,1-2.3,1.8v-10.6h-4.6v29.3h4.2l0.2-2.2c0.6,0.8,1.4,1.5,2.3,1.9
		C1012.7,236.9,1013.8,237.1,1015,237.1L1015,237.1z M1013.9,233.4c-1.1,0-2-0.2-2.7-0.7c-0.7-0.5-1.2-1.1-1.6-1.9v-8.5
		c0.4-0.8,0.9-1.4,1.6-1.9c0.7-0.5,1.6-0.7,2.6-0.7c0.9,0,1.6,0.2,2.2,0.5c0.6,0.4,1.1,0.8,1.4,1.5c0.4,0.6,0.6,1.3,0.7,2.1
		c0.1,0.8,0.2,1.7,0.2,2.6v0.4c0,0.9-0.1,1.8-0.2,2.6c-0.2,0.8-0.4,1.5-0.8,2.1c-0.4,0.6-0.8,1.1-1.4,1.4
		C1015.4,233.2,1014.7,233.4,1013.9,233.4z M1031.7,236.7v-29.3h-4.6v29.3H1031.7z M1039.3,213.2c0.8,0,1.5-0.2,1.9-0.7
		s0.7-1,0.7-1.7c0-0.7-0.2-1.3-0.7-1.8c-0.5-0.5-1.1-0.7-1.9-0.7s-1.5,0.2-1.9,0.7c-0.4,0.5-0.7,1.1-0.7,1.8c0,0.7,0.2,1.3,0.7,1.7
		C1037.9,213,1038.5,213.2,1039.3,213.2L1039.3,213.2z M1041.6,236.7v-20.6h-4.6v20.6H1041.6z M1055.1,237.1c1.1,0,2.2-0.2,3.2-0.6
		c1-0.4,1.9-0.9,2.6-1.5c0.8-0.7,1.3-1.4,1.8-2.3c0.4-0.9,0.7-1.8,0.7-2.8h-4.3c0,0.5-0.2,1-0.4,1.4c-0.2,0.4-0.5,0.8-0.9,1.1
		s-0.8,0.6-1.3,0.7c-0.5,0.2-1,0.3-1.6,0.3c-0.9,0-1.7-0.2-2.3-0.6c-0.6-0.4-1.1-0.9-1.4-1.5c-0.4-0.6-0.6-1.3-0.7-2.1
		c-0.1-0.8-0.2-1.6-0.2-2.4v-0.7c0-0.8,0.1-1.6,0.2-2.4c0.1-0.8,0.4-1.5,0.7-2.1c0.4-0.6,0.8-1.1,1.4-1.5c0.6-0.4,1.4-0.6,2.3-0.6
		c0.6,0,1.2,0.1,1.7,0.3c0.5,0.2,0.9,0.5,1.3,0.9c0.3,0.4,0.6,0.8,0.8,1.3c0.2,0.5,0.3,1,0.3,1.6h4.3c0-1.1-0.3-2.2-0.7-3.1
		c-0.4-0.9-1-1.8-1.7-2.5c-0.7-0.7-1.6-1.2-2.6-1.6c-1-0.4-2.1-0.6-3.4-0.6c-1.6,0-2.9,0.3-4.1,0.8c-1.2,0.5-2.1,1.3-2.9,2.2
		c-0.8,0.9-1.3,2-1.7,3.3c-0.4,1.3-0.6,2.6-0.6,4v0.7c0,1.4,0.2,2.7,0.6,4c0.4,1.3,1,2.4,1.7,3.3c0.8,0.9,1.7,1.7,2.9,2.2
		C1052.1,236.9,1053.5,237.1,1055.1,237.1L1055.1,237.1z M1081.7,236.7v-10.7h5.3l5.5,10.7h5.1v-0.2l-6.2-11.6
		c1.6-0.7,2.8-1.6,3.7-2.9c0.9-1.3,1.3-2.8,1.3-4.7c0-1.4-0.2-2.6-0.7-3.6c-0.4-1-1.1-1.9-1.9-2.6c-0.9-0.7-1.9-1.2-3.1-1.6
		c-1.2-0.4-2.6-0.5-4.2-0.5h-9.7v27.7H1081.7L1081.7,236.7z M1086.7,222.2h-4.9v-9.3h4.9c0.9,0,1.7,0.1,2.3,0.3
		c0.6,0.2,1.2,0.5,1.6,0.9c0.4,0.4,0.7,0.9,0.9,1.5c0.2,0.6,0.3,1.2,0.3,1.9c0,0.7-0.1,1.3-0.3,1.8c-0.2,0.6-0.5,1-1,1.4
		c-0.4,0.4-1,0.7-1.6,0.9C1088.3,222.1,1087.5,222.2,1086.7,222.2z M1103.3,213.2c0.8,0,1.5-0.2,1.9-0.7s0.7-1,0.7-1.7
		c0-0.7-0.2-1.3-0.7-1.8c-0.5-0.5-1.1-0.7-1.9-0.7c-0.8,0-1.5,0.2-1.9,0.7c-0.4,0.5-0.7,1.1-0.7,1.8c0,0.7,0.2,1.3,0.7,1.7
		C1101.8,213,1102.4,213.2,1103.3,213.2z M1105.5,236.7v-20.6h-4.6v20.6H1105.5z M1118.2,237.1c1.2,0,2.4-0.2,3.4-0.5
		c1-0.3,1.9-0.7,2.6-1.3c0.7-0.6,1.3-1.2,1.7-2c0.4-0.8,0.6-1.6,0.6-2.5c0-0.9-0.2-1.7-0.5-2.4c-0.3-0.7-0.8-1.3-1.5-1.7
		c-0.6-0.5-1.4-0.9-2.4-1.3c-0.9-0.3-2-0.6-3.2-0.9c-0.8-0.2-1.5-0.4-2-0.5c-0.5-0.2-1-0.4-1.3-0.6c-0.3-0.2-0.5-0.5-0.7-0.7
		c-0.1-0.3-0.2-0.6-0.2-0.9c0-0.3,0.1-0.7,0.2-1c0.1-0.3,0.4-0.6,0.6-0.8c0.3-0.2,0.6-0.4,1.1-0.6c0.4-0.1,0.9-0.2,1.5-0.2
		c0.6,0,1.1,0.1,1.6,0.3c0.4,0.2,0.8,0.4,1.1,0.7c0.3,0.3,0.5,0.6,0.7,1c0.2,0.4,0.2,0.8,0.2,1.2h4.6c0-0.9-0.2-1.8-0.6-2.6
		c-0.4-0.8-0.9-1.5-1.6-2.1c-0.7-0.6-1.6-1.1-2.6-1.4c-1-0.3-2.2-0.5-3.4-0.5c-1.2,0-2.3,0.2-3.3,0.5c-1,0.3-1.8,0.8-2.5,1.4
		c-0.7,0.6-1.2,1.2-1.6,2c-0.4,0.8-0.5,1.6-0.5,2.4c0,0.9,0.2,1.6,0.5,2.3c0.4,0.7,0.9,1.2,1.5,1.7s1.4,0.9,2.3,1.2
		c0.9,0.3,1.9,0.6,3,0.9c0.9,0.2,1.7,0.4,2.2,0.6c0.6,0.2,1,0.4,1.3,0.7c0.3,0.2,0.5,0.5,0.6,0.8c0.1,0.3,0.2,0.6,0.2,0.9
		c0,0.7-0.3,1.4-0.9,1.8c-0.6,0.5-1.5,0.7-2.8,0.7c-0.5,0-1-0.1-1.5-0.2c-0.5-0.1-0.9-0.3-1.3-0.6c-0.4-0.3-0.7-0.6-1-1
		c-0.3-0.4-0.4-1-0.4-1.6h-4.5c0,0.9,0.2,1.7,0.6,2.5c0.4,0.8,0.9,1.6,1.7,2.2c0.7,0.6,1.6,1.2,2.7,1.6
		C1115.6,236.9,1116.8,237.1,1118.2,237.1L1118.2,237.1z M1135.1,236.7V230l2-2.1l6.1,8.8h5.3l-8.4-12l7.6-8.6h-5.5l-5.6,6.4
		l-1.4,1.8v-16.9h-4.6v29.2H1135.1L1135.1,236.7z M964.1,281.7v-9.1l-0.5-12.2l8.1,21.3h3.4l8.1-21.4l-0.5,12.2v9.1h4.8V254h-6.2
		l-7.9,21.3l-7.9-21.3h-6.2v27.7C959.3,281.7,964.1,281.7,964.1,281.7z M999,282.1c0.6,0,1.1-0.1,1.7-0.2c0.5-0.1,1-0.3,1.5-0.5
		c0.4-0.2,0.9-0.5,1.2-0.7c0.4-0.3,0.7-0.6,1-0.9c0.1,0.4,0.1,0.7,0.2,1.1c0.1,0.3,0.2,0.6,0.3,0.9h4.7v-0.3
		c-0.5-1.1-0.8-2.6-0.8-4.4v-9.1c0-1.2-0.2-2.2-0.6-3.1c-0.4-0.9-0.9-1.6-1.6-2.2s-1.5-1-2.5-1.3c-1-0.3-2-0.4-3.2-0.4
		c-1.3,0-2.4,0.2-3.5,0.5c-1,0.4-1.9,0.8-2.7,1.4s-1.3,1.3-1.7,2c-0.4,0.8-0.6,1.5-0.6,2.4h4.6c0-0.4,0.1-0.8,0.3-1.1
		c0.2-0.3,0.4-0.6,0.7-0.9c0.3-0.2,0.7-0.4,1.1-0.6c0.4-0.1,0.9-0.2,1.5-0.2c1.2,0,2.1,0.3,2.7,1c0.6,0.6,0.9,1.5,0.9,2.6v1.4h-2.9
		c-1.5,0-2.8,0.1-3.9,0.4c-1.2,0.3-2.1,0.7-2.9,1.3c-0.8,0.6-1.4,1.3-1.8,2.1c-0.4,0.9-0.6,1.8-0.6,2.9c0,0.9,0.2,1.7,0.5,2.4
		c0.3,0.8,0.8,1.4,1.4,2c0.6,0.6,1.3,1,2.2,1.3C997.1,282,998,282.1,999,282.1L999,282.1z M999.9,278.4c-0.5,0-1-0.1-1.4-0.2
		c-0.4-0.1-0.7-0.3-1-0.6c-0.3-0.3-0.5-0.6-0.6-0.9c-0.1-0.4-0.2-0.7-0.2-1.2c0-1.1,0.4-1.9,1.3-2.5c0.9-0.6,2.1-0.9,3.8-0.9h2.5
		v3.9c-0.2,0.3-0.4,0.6-0.7,0.9c-0.3,0.3-0.6,0.6-1,0.8c-0.4,0.2-0.8,0.4-1.2,0.6C1000.9,278.3,1000.4,278.4,999.9,278.4z
		 M1018.2,281.7v-14.7c0.4-0.8,1-1.4,1.7-1.8c0.7-0.5,1.5-0.7,2.5-0.7c0.6,0,1.1,0.1,1.5,0.2c0.4,0.1,0.8,0.4,1.1,0.7
		c0.3,0.3,0.5,0.7,0.7,1.2c0.2,0.5,0.2,1.1,0.2,1.8v13.3h4.6v-13.3c0-1.4-0.2-2.6-0.5-3.6c-0.3-1-0.7-1.8-1.3-2.4
		c-0.6-0.6-1.3-1-2.1-1.3c-0.8-0.3-1.7-0.4-2.7-0.4c-1.2,0-2.4,0.2-3.4,0.7c-1,0.5-1.9,1.2-2.6,2l-0.1-2.4h-4.3v20.6L1018.2,281.7
		L1018.2,281.7z M1041.5,282.1c0.6,0,1.1-0.1,1.7-0.2c0.5-0.1,1-0.3,1.5-0.5c0.4-0.2,0.9-0.5,1.2-0.7c0.4-0.3,0.7-0.6,1-0.9
		c0.1,0.4,0.1,0.7,0.2,1.1c0.1,0.3,0.2,0.6,0.3,0.9h4.7v-0.3c-0.5-1.1-0.8-2.6-0.8-4.4v-9.1c0-1.2-0.2-2.2-0.6-3.1
		c-0.4-0.9-0.9-1.6-1.6-2.2c-0.7-0.6-1.5-1-2.5-1.3c-1-0.3-2-0.4-3.2-0.4c-1.3,0-2.4,0.2-3.5,0.5c-1,0.4-1.9,0.8-2.7,1.4
		c-0.7,0.6-1.3,1.3-1.7,2c-0.4,0.8-0.6,1.5-0.6,2.4h4.6c0-0.4,0.1-0.8,0.3-1.1c0.2-0.3,0.4-0.6,0.7-0.9c0.3-0.2,0.7-0.4,1.1-0.6
		c0.4-0.1,0.9-0.2,1.5-0.2c1.2,0,2.1,0.3,2.7,1c0.6,0.6,0.9,1.5,0.9,2.6v1.4h-2.9c-1.5,0-2.8,0.1-3.9,0.4c-1.2,0.3-2.1,0.7-2.9,1.3
		c-0.8,0.6-1.4,1.3-1.8,2.1c-0.4,0.9-0.6,1.8-0.6,2.9c0,0.9,0.2,1.7,0.5,2.4c0.3,0.8,0.8,1.4,1.4,2c0.6,0.6,1.3,1,2.2,1.3
		C1039.5,282,1040.5,282.1,1041.5,282.1z M1042.4,278.4c-0.5,0-1-0.1-1.4-0.2c-0.4-0.1-0.7-0.3-1-0.6c-0.3-0.3-0.5-0.6-0.6-0.9
		c-0.1-0.4-0.2-0.7-0.2-1.2c0-1.1,0.4-1.9,1.3-2.5c0.9-0.6,2.1-0.9,3.8-0.9h2.5v3.9c-0.2,0.3-0.4,0.6-0.7,0.9
		c-0.3,0.3-0.6,0.6-1,0.8c-0.4,0.2-0.8,0.4-1.2,0.6C1043.4,278.3,1042.9,278.4,1042.4,278.4L1042.4,278.4z M1064.1,289.9
		c1.4,0,2.6-0.2,3.8-0.6c1.1-0.4,2.1-1,2.9-1.7c0.8-0.7,1.4-1.6,1.9-2.7c0.5-1.1,0.7-2.3,0.7-3.7v-20h-4.1l-0.2,2.1
		c-0.6-0.8-1.4-1.4-2.3-1.8c-0.9-0.4-2-0.6-3.2-0.6c-1.3,0-2.4,0.3-3.4,0.8c-1,0.5-1.9,1.2-2.6,2.2c-0.7,0.9-1.3,2-1.6,3.3
		c-0.4,1.3-0.6,2.7-0.6,4.3v0.4c0,1.5,0.2,2.9,0.6,4.2c0.4,1.3,0.9,2.4,1.6,3.3c0.7,0.9,1.6,1.7,2.6,2.2c1,0.5,2.1,0.8,3.4,0.8
		c1.1,0,2.2-0.2,3-0.6c0.9-0.4,1.6-0.9,2.3-1.7v1.4c0,1.6-0.4,2.8-1.3,3.7c-0.9,0.8-2.1,1.2-3.6,1.2c-0.9,0-1.9-0.2-2.7-0.6
		s-1.7-1-2.5-1.9l-2.2,2.8c0.5,0.6,1,1.1,1.6,1.6c0.6,0.4,1.3,0.8,2,1.1c0.7,0.3,1.4,0.5,2.1,0.6
		C1062.9,289.8,1063.5,289.9,1064.1,289.9L1064.1,289.9z M1064.6,278.4c-0.8,0-1.5-0.2-2.1-0.5c-0.6-0.4-1.1-0.8-1.5-1.4
		c-0.4-0.6-0.7-1.3-0.9-2.1c-0.2-0.8-0.3-1.7-0.3-2.6v-0.4c0-0.9,0.1-1.8,0.3-2.6c0.2-0.8,0.5-1.5,0.9-2.1c0.4-0.6,0.9-1.1,1.5-1.4
		c0.6-0.4,1.3-0.5,2.2-0.5c1,0,1.8,0.2,2.5,0.6c0.7,0.4,1.2,1,1.6,1.7v9.1c-0.4,0.7-0.9,1.3-1.6,1.7
		C1066.5,278.1,1065.7,278.4,1064.6,278.4L1064.6,278.4z M1087,282.1c1,0,1.9-0.1,2.8-0.3c0.8-0.2,1.6-0.5,2.2-0.9
		c0.6-0.4,1.2-0.8,1.7-1.2c0.5-0.5,0.9-0.9,1.2-1.4l-2.5-2.4c-0.6,0.8-1.3,1.4-2.2,1.9c-0.8,0.5-1.8,0.7-3,0.7
		c-0.8,0-1.5-0.1-2.2-0.4c-0.6-0.3-1.2-0.7-1.7-1.1c-0.5-0.5-0.8-1.1-1.1-1.7c-0.3-0.7-0.4-1.4-0.5-2.2h13.4v-2
		c0-1.5-0.2-2.8-0.5-4.1c-0.4-1.2-0.9-2.3-1.6-3.2c-0.7-0.9-1.6-1.6-2.7-2.1c-1.1-0.5-2.4-0.8-3.9-0.8c-1.3,0-2.5,0.3-3.6,0.8
		c-1.1,0.5-2.1,1.2-2.9,2.1c-0.8,0.9-1.5,2-2,3.4c-0.5,1.3-0.7,2.8-0.7,4.4v0.8c0,1.4,0.2,2.7,0.7,3.9c0.5,1.2,1.1,2.3,1.9,3.2
		c0.8,0.9,1.9,1.6,3.1,2.1C1084.2,281.9,1085.5,282.1,1087,282.1z M1090.7,269.5h-8.7c0.2-1.6,0.7-2.8,1.5-3.7
		c0.8-0.9,1.8-1.3,3.1-1.3c0.8,0,1.4,0.1,1.9,0.4c0.5,0.3,0.9,0.6,1.3,1c0.3,0.4,0.6,0.9,0.7,1.5s0.3,1.2,0.3,1.8V269.5z
		 M1103.4,281.7v-14.9c0.4-0.7,0.8-1.3,1.5-1.7c0.6-0.4,1.4-0.6,2.4-0.6c0.6,0,1.1,0.1,1.5,0.2c0.5,0.1,0.8,0.4,1.2,0.7
		c0.3,0.3,0.6,0.7,0.7,1.2c0.2,0.5,0.3,1.1,0.3,1.8v13.3h4.6V268l0-0.2l0-0.2c0.3-0.9,0.7-1.7,1.4-2.2c0.7-0.6,1.5-0.8,2.6-0.8
		c0.6,0,1.1,0.1,1.5,0.2c0.4,0.1,0.8,0.3,1.2,0.6c0.3,0.3,0.6,0.7,0.7,1.2c0.2,0.5,0.3,1.1,0.3,1.9v13.4h4.6v-13.3
		c0-1.4-0.2-2.5-0.5-3.5c-0.3-1-0.8-1.8-1.3-2.4c-0.6-0.6-1.3-1.1-2.1-1.4c-0.8-0.3-1.8-0.4-2.8-0.4c-1.4,0-2.7,0.3-3.7,0.9
		c-1,0.6-1.9,1.3-2.6,2.3c-0.5-1.1-1.3-1.9-2.3-2.4c-1-0.5-2.1-0.8-3.3-0.8c-1.3,0-2.4,0.2-3.4,0.7c-1,0.4-1.8,1.1-2.5,1.9l-0.1-2.2
		h-4.3v20.6L1103.4,281.7L1103.4,281.7z M1141.5,282.1c1,0,1.9-0.1,2.8-0.3c0.8-0.2,1.6-0.5,2.2-0.9c0.6-0.4,1.2-0.8,1.7-1.2
		c0.5-0.5,0.9-0.9,1.2-1.4l-2.5-2.4c-0.6,0.8-1.3,1.4-2.2,1.9c-0.8,0.5-1.8,0.7-3,0.7c-0.8,0-1.5-0.1-2.2-0.4
		c-0.6-0.3-1.2-0.7-1.7-1.1c-0.5-0.5-0.8-1.1-1.1-1.7c-0.3-0.7-0.4-1.4-0.5-2.2h13.4v-2c0-1.5-0.2-2.8-0.5-4.1
		c-0.4-1.2-0.9-2.3-1.6-3.2c-0.7-0.9-1.6-1.6-2.7-2.1c-1.1-0.5-2.4-0.8-3.9-0.8c-1.3,0-2.5,0.3-3.6,0.8c-1.1,0.5-2.1,1.2-2.9,2.1
		c-0.8,0.9-1.5,2-2,3.4c-0.5,1.3-0.7,2.8-0.7,4.4v0.8c0,1.4,0.2,2.7,0.7,3.9c0.5,1.2,1.1,2.3,1.9,3.2c0.8,0.9,1.9,1.6,3.1,2.1
		C1138.6,281.9,1140,282.1,1141.5,282.1z M1145.2,269.5h-8.7c0.2-1.6,0.7-2.8,1.5-3.7c0.8-0.9,1.8-1.3,3-1.3c0.8,0,1.4,0.1,1.9,0.4
		c0.5,0.3,0.9,0.6,1.3,1c0.3,0.4,0.6,0.9,0.7,1.5s0.3,1.2,0.3,1.8V269.5z M1157.8,281.7v-14.7c0.4-0.8,1-1.4,1.7-1.8
		c0.7-0.5,1.5-0.7,2.5-0.7c0.6,0,1.1,0.1,1.5,0.2c0.4,0.1,0.8,0.4,1.1,0.7c0.3,0.3,0.5,0.7,0.7,1.2c0.2,0.5,0.2,1.1,0.2,1.8v13.3
		h4.6v-13.3c0-1.4-0.2-2.6-0.5-3.6c-0.3-1-0.7-1.8-1.3-2.4c-0.6-0.6-1.3-1-2.1-1.3c-0.8-0.3-1.7-0.4-2.7-0.4c-1.2,0-2.4,0.2-3.4,0.7
		c-1,0.5-1.9,1.2-2.6,2l-0.1-2.4h-4.3v20.6L1157.8,281.7L1157.8,281.7z M1181.2,282.1c0.7,0,1.3,0,1.7-0.1c0.5-0.1,0.9-0.2,1.3-0.3
		v-3.6c-0.2,0-0.4,0.1-0.7,0.1c-0.3,0-0.6,0.1-0.9,0.1s-0.6,0-0.9-0.1c-0.3-0.1-0.5-0.2-0.7-0.3c-0.2-0.2-0.3-0.4-0.4-0.7
		c-0.1-0.3-0.2-0.7-0.2-1.1v-11.5h3.6v-3.4h-3.6v-5h-4.6v5h-3.4v3.4h3.4v11.8c0,1.1,0.1,2,0.4,2.7c0.3,0.7,0.6,1.3,1.1,1.8
		s1,0.8,1.7,1C1179.8,282,1180.5,282.1,1181.2,282.1z M961.8,326.8l2.2-6.5h10.7l2.2,6.5h5L971.5,299h-4.3l-10.4,27.7H961.8z
		 M973.3,316.4h-8l4-11.5L973.3,316.4z M992.3,327.1c1.2,0,2.4-0.2,3.4-0.5c1-0.3,1.9-0.7,2.6-1.3c0.7-0.6,1.3-1.2,1.7-2
		c0.4-0.8,0.6-1.6,0.6-2.5c0-0.9-0.2-1.7-0.5-2.4c-0.3-0.7-0.8-1.3-1.5-1.8c-0.6-0.5-1.4-0.9-2.4-1.3c-0.9-0.3-2-0.6-3.2-0.9
		c-0.8-0.2-1.5-0.4-2-0.5c-0.5-0.2-1-0.4-1.3-0.6c-0.3-0.2-0.5-0.5-0.7-0.7c-0.1-0.3-0.2-0.6-0.2-0.9c0-0.3,0.1-0.7,0.2-1
		c0.1-0.3,0.4-0.6,0.6-0.8c0.3-0.2,0.6-0.4,1.1-0.6c0.4-0.1,0.9-0.2,1.5-0.2c0.6,0,1.1,0.1,1.6,0.3c0.4,0.2,0.8,0.4,1.1,0.7
		c0.3,0.3,0.5,0.6,0.7,1c0.2,0.4,0.2,0.8,0.2,1.2h4.6c0-0.9-0.2-1.8-0.6-2.6c-0.4-0.8-0.9-1.5-1.6-2.1c-0.7-0.6-1.6-1.1-2.6-1.4
		c-1-0.3-2.2-0.5-3.4-0.5c-1.2,0-2.3,0.2-3.3,0.5c-1,0.3-1.8,0.8-2.5,1.4c-0.7,0.6-1.2,1.2-1.6,2c-0.4,0.8-0.5,1.6-0.5,2.4
		c0,0.9,0.2,1.6,0.5,2.3c0.4,0.7,0.9,1.2,1.5,1.7c0.6,0.5,1.4,0.9,2.3,1.2c0.9,0.3,1.9,0.6,3,0.9c0.9,0.2,1.7,0.4,2.2,0.6
		c0.6,0.2,1,0.4,1.3,0.7c0.3,0.2,0.5,0.5,0.6,0.8c0.1,0.3,0.2,0.6,0.2,0.9c0,0.8-0.3,1.4-0.9,1.8c-0.6,0.5-1.5,0.7-2.8,0.7
		c-0.5,0-1-0.1-1.5-0.2c-0.5-0.1-0.9-0.3-1.3-0.6c-0.4-0.3-0.7-0.6-1-1c-0.3-0.4-0.4-1-0.4-1.6h-4.5c0,0.9,0.2,1.7,0.6,2.5
		c0.4,0.8,0.9,1.5,1.7,2.2c0.7,0.6,1.6,1.2,2.7,1.6C989.7,326.9,990.9,327.1,992.3,327.1L992.3,327.1z M1012.3,327.1
		c1.2,0,2.4-0.2,3.4-0.5c1-0.3,1.9-0.7,2.6-1.3c0.7-0.6,1.3-1.2,1.7-2c0.4-0.8,0.6-1.6,0.6-2.5c0-0.9-0.2-1.7-0.5-2.4
		c-0.3-0.7-0.8-1.3-1.5-1.8c-0.6-0.5-1.4-0.9-2.4-1.3c-0.9-0.3-2-0.6-3.2-0.9c-0.8-0.2-1.5-0.4-2-0.5c-0.5-0.2-1-0.4-1.3-0.6
		c-0.3-0.2-0.5-0.5-0.7-0.7c-0.1-0.3-0.2-0.6-0.2-0.9c0-0.3,0.1-0.7,0.2-1c0.1-0.3,0.3-0.6,0.6-0.8c0.3-0.2,0.6-0.4,1.1-0.6
		c0.4-0.1,0.9-0.2,1.5-0.2c0.6,0,1.1,0.1,1.6,0.3c0.4,0.2,0.8,0.4,1.1,0.7c0.3,0.3,0.5,0.6,0.7,1c0.2,0.4,0.2,0.8,0.2,1.2h4.6
		c0-0.9-0.2-1.8-0.6-2.6c-0.4-0.8-0.9-1.5-1.6-2.1c-0.7-0.6-1.6-1.1-2.6-1.4c-1-0.3-2.2-0.5-3.4-0.5c-1.2,0-2.3,0.2-3.3,0.5
		c-1,0.3-1.8,0.8-2.5,1.4c-0.7,0.6-1.2,1.2-1.6,2c-0.4,0.8-0.6,1.6-0.6,2.4c0,0.9,0.2,1.6,0.5,2.3c0.4,0.7,0.9,1.2,1.5,1.7
		c0.6,0.5,1.4,0.9,2.3,1.2c0.9,0.3,1.9,0.6,3,0.9c0.9,0.2,1.7,0.4,2.2,0.6c0.6,0.2,1,0.4,1.3,0.7c0.3,0.2,0.5,0.5,0.6,0.8
		c0.1,0.3,0.2,0.6,0.2,0.9c0,0.8-0.3,1.4-1,1.8c-0.6,0.5-1.5,0.7-2.8,0.7c-0.5,0-1-0.1-1.5-0.2c-0.5-0.1-0.9-0.3-1.3-0.6
		c-0.4-0.3-0.7-0.6-1-1c-0.2-0.4-0.4-1-0.4-1.6h-4.5c0,0.9,0.2,1.7,0.6,2.5c0.4,0.8,0.9,1.5,1.7,2.2c0.7,0.6,1.6,1.2,2.7,1.6
		C1009.6,326.9,1010.9,327.1,1012.3,327.1L1012.3,327.1z M1033.2,327.1c1.5,0,2.8-0.3,4-0.8c1.2-0.5,2.2-1.3,3-2.2
		c0.8-0.9,1.4-2,1.9-3.3c0.4-1.3,0.6-2.7,0.6-4.2v-0.4c0-1.5-0.2-2.9-0.6-4.2c-0.4-1.3-1-2.4-1.9-3.3c-0.8-0.9-1.8-1.7-3-2.2
		c-1.2-0.5-2.5-0.8-4-0.8c-1.5,0-2.8,0.3-4,0.8c-1.2,0.5-2.2,1.3-3,2.2c-0.8,0.9-1.4,2-1.9,3.3c-0.4,1.3-0.7,2.7-0.7,4.2v0.4
		c0,1.5,0.2,2.9,0.7,4.2c0.4,1.3,1.1,2.4,1.9,3.3c0.8,0.9,1.8,1.7,3,2.2C1030.4,326.9,1031.7,327.1,1033.2,327.1L1033.2,327.1z
		 M1033.2,323.4c-0.9,0-1.6-0.2-2.2-0.5c-0.6-0.4-1.1-0.8-1.5-1.5c-0.4-0.6-0.7-1.3-0.9-2.2c-0.2-0.8-0.3-1.7-0.3-2.6v-0.4
		c0-0.9,0.1-1.8,0.3-2.6c0.2-0.8,0.5-1.5,0.9-2.2c0.4-0.6,0.9-1.1,1.5-1.5c0.6-0.4,1.3-0.6,2.2-0.6s1.6,0.2,2.2,0.6
		c0.6,0.4,1.1,0.9,1.5,1.5s0.7,1.3,0.9,2.2s0.3,1.7,0.3,2.6v0.4c0,0.9-0.1,1.8-0.3,2.6c-0.2,0.8-0.5,1.5-0.9,2.2
		c-0.4,0.6-0.9,1.1-1.5,1.5C1034.8,323.3,1034,323.4,1033.2,323.4L1033.2,323.4z M1055,327.1c1.1,0,2.2-0.2,3.2-0.6
		c1-0.4,1.9-0.9,2.6-1.5c0.8-0.7,1.3-1.4,1.8-2.3c0.4-0.9,0.7-1.8,0.7-2.8h-4.3c0,0.5-0.1,1-0.4,1.4c-0.2,0.4-0.5,0.8-0.9,1.1
		c-0.4,0.3-0.8,0.6-1.3,0.7c-0.5,0.2-1,0.3-1.6,0.3c-0.9,0-1.7-0.2-2.3-0.6c-0.6-0.4-1.1-0.9-1.4-1.5c-0.4-0.6-0.6-1.3-0.7-2.1
		s-0.2-1.6-0.2-2.4v-0.7c0-0.8,0.1-1.6,0.2-2.4c0.1-0.8,0.4-1.5,0.7-2.1c0.4-0.6,0.8-1.1,1.4-1.5c0.6-0.4,1.4-0.6,2.3-0.6
		c0.6,0,1.2,0.1,1.7,0.3c0.5,0.2,0.9,0.5,1.3,0.9c0.3,0.4,0.6,0.8,0.8,1.3s0.3,1,0.3,1.6h4.3c0-1.1-0.3-2.2-0.7-3.1
		c-0.4-0.9-1-1.8-1.7-2.5c-0.7-0.7-1.6-1.2-2.6-1.6c-1-0.4-2.1-0.6-3.4-0.6c-1.6,0-2.9,0.3-4.1,0.8c-1.2,0.5-2.1,1.3-2.9,2.2
		c-0.8,0.9-1.4,2-1.7,3.3c-0.4,1.3-0.6,2.6-0.6,4v0.7c0,1.4,0.2,2.7,0.6,4s1,2.4,1.7,3.3c0.8,0.9,1.7,1.7,2.9,2.2
		C1052.1,326.9,1053.4,327.1,1055,327.1z M1069.4,303.2c0.8,0,1.5-0.2,1.9-0.7c0.5-0.5,0.7-1,0.7-1.7c0-0.7-0.2-1.3-0.7-1.8
		c-0.5-0.5-1.1-0.7-1.9-0.7s-1.5,0.2-1.9,0.7c-0.4,0.5-0.7,1.1-0.7,1.8c0,0.7,0.2,1.3,0.7,1.7C1067.9,303,1068.6,303.2,1069.4,303.2
		z M1071.7,326.8v-20.6h-4.6v20.6H1071.7z M1083,327.1c0.6,0,1.1-0.1,1.7-0.2c0.5-0.1,1-0.3,1.5-0.5c0.4-0.2,0.9-0.5,1.2-0.7
		c0.4-0.3,0.7-0.6,1-0.9c0.1,0.4,0.1,0.7,0.2,1.1c0.1,0.3,0.2,0.6,0.3,0.9h4.7v-0.3c-0.5-1.1-0.8-2.6-0.8-4.4v-9.1
		c0-1.2-0.2-2.2-0.6-3.1c-0.4-0.9-0.9-1.6-1.6-2.2c-0.7-0.6-1.5-1-2.5-1.3c-1-0.3-2-0.4-3.2-0.4c-1.3,0-2.4,0.2-3.5,0.5
		c-1,0.4-1.9,0.8-2.7,1.4c-0.7,0.6-1.3,1.3-1.7,2c-0.4,0.8-0.6,1.5-0.6,2.4h4.6c0-0.4,0.1-0.8,0.3-1.1c0.2-0.3,0.4-0.6,0.7-0.9
		c0.3-0.2,0.7-0.4,1.1-0.6c0.4-0.1,0.9-0.2,1.5-0.2c1.2,0,2.1,0.3,2.7,1c0.6,0.6,0.9,1.5,0.9,2.6v1.4h-2.9c-1.5,0-2.8,0.1-3.9,0.4
		c-1.2,0.3-2.1,0.7-2.9,1.3c-0.8,0.6-1.4,1.3-1.8,2.1c-0.4,0.9-0.6,1.8-0.6,2.9c0,0.9,0.2,1.7,0.5,2.4c0.3,0.8,0.8,1.4,1.4,2
		c0.6,0.6,1.3,1,2.2,1.3C1081.1,327,1082,327.1,1083,327.1z M1083.9,323.4c-0.5,0-1-0.1-1.4-0.2c-0.4-0.1-0.7-0.3-1-0.6
		c-0.3-0.3-0.5-0.6-0.6-0.9c-0.1-0.4-0.2-0.7-0.2-1.2c0-1.1,0.4-1.9,1.3-2.5c0.9-0.6,2.1-0.9,3.8-0.9h2.5v3.9
		c-0.2,0.3-0.4,0.6-0.7,0.9c-0.3,0.3-0.6,0.6-1,0.8c-0.4,0.2-0.8,0.4-1.2,0.6C1084.9,323.3,1084.4,323.4,1083.9,323.4L1083.9,323.4z
		 M1104.1,327.1c0.7,0,1.3,0,1.7-0.1c0.5-0.1,0.9-0.2,1.3-0.3v-3.6c-0.2,0-0.4,0.1-0.7,0.1s-0.6,0.1-0.9,0.1s-0.6,0-0.9-0.1
		c-0.3-0.1-0.5-0.2-0.7-0.3c-0.2-0.2-0.3-0.4-0.4-0.7c-0.1-0.3-0.2-0.7-0.2-1.1v-11.5h3.6v-3.4h-3.6v-5h-4.6v5h-3.4v3.4h3.4v11.8
		c0,1.1,0.1,2,0.4,2.7c0.3,0.7,0.6,1.3,1.1,1.8c0.5,0.5,1,0.8,1.7,1C1102.6,327,1103.3,327.1,1104.1,327.1L1104.1,327.1z
		 M1113.1,303.2c0.8,0,1.5-0.2,1.9-0.7c0.5-0.5,0.7-1,0.7-1.7c0-0.7-0.2-1.3-0.7-1.8c-0.5-0.5-1.1-0.7-1.9-0.7
		c-0.8,0-1.5,0.2-1.9,0.7c-0.4,0.5-0.7,1.1-0.7,1.8c0,0.7,0.2,1.3,0.7,1.7C1111.6,303,1112.3,303.2,1113.1,303.2z M1115.4,326.8
		v-20.6h-4.6v20.6H1115.4z M1129,327.1c1.5,0,2.8-0.3,4-0.8s2.2-1.3,3-2.2c0.8-0.9,1.4-2,1.9-3.3c0.4-1.3,0.6-2.7,0.6-4.2v-0.4
		c0-1.5-0.2-2.9-0.6-4.2c-0.4-1.3-1-2.4-1.9-3.3c-0.8-0.9-1.8-1.7-3-2.2c-1.2-0.5-2.5-0.8-4-0.8c-1.5,0-2.8,0.3-4,0.8
		c-1.2,0.5-2.2,1.3-3,2.2c-0.8,0.9-1.4,2-1.9,3.3c-0.4,1.3-0.7,2.7-0.7,4.2v0.4c0,1.5,0.2,2.9,0.7,4.2c0.4,1.3,1.1,2.4,1.9,3.3
		c0.8,0.9,1.8,1.7,3,2.2C1126.2,326.9,1127.5,327.1,1129,327.1L1129,327.1z M1129,323.4c-0.9,0-1.6-0.2-2.2-0.5
		c-0.6-0.4-1.1-0.8-1.5-1.5c-0.4-0.6-0.7-1.3-0.9-2.2c-0.2-0.8-0.3-1.7-0.3-2.6v-0.4c0-0.9,0.1-1.8,0.3-2.6c0.2-0.8,0.5-1.5,0.9-2.2
		c0.4-0.6,0.9-1.1,1.5-1.5c0.6-0.4,1.3-0.6,2.2-0.6c0.9,0,1.6,0.2,2.2,0.6c0.6,0.4,1.1,0.9,1.5,1.5c0.4,0.6,0.7,1.3,0.9,2.2
		c0.2,0.8,0.3,1.7,0.3,2.6v0.4c0,0.9-0.1,1.8-0.3,2.6c-0.2,0.8-0.5,1.5-0.9,2.2c-0.4,0.6-0.9,1.1-1.5,1.5
		C1130.6,323.3,1129.9,323.4,1129,323.4z M1146.9,326.8v-14.7c0.4-0.8,1-1.4,1.7-1.8c0.7-0.5,1.5-0.7,2.5-0.7c0.6,0,1.1,0.1,1.5,0.2
		c0.4,0.1,0.8,0.4,1.1,0.7c0.3,0.3,0.5,0.7,0.7,1.2c0.2,0.5,0.2,1.1,0.2,1.8v13.3h4.6v-13.3c0-1.4-0.2-2.6-0.5-3.6
		c-0.3-1-0.8-1.8-1.3-2.4c-0.6-0.6-1.2-1-2.1-1.3c-0.8-0.3-1.7-0.4-2.7-0.4c-1.2,0-2.4,0.2-3.4,0.7c-1,0.5-1.9,1.2-2.6,2l-0.1-2.4
		h-4.3v20.6L1146.9,326.8L1146.9,326.8z"/>
</g>
<text transform="matrix(1 0 0 1 772.0209 2.1862)" style="font-family:'MyriadPro-Regular'; font-size:48.4128px;">FirstChoice Institute</text>
<text transform="matrix(1 0 0 1 -280.3791 -301.6537)"><tspan x="0" y="0" style="font-family:'CenturyGothic'; font-size:45px;">First</tspan><tspan x="0" y="45" style="font-family:'CenturyGothic'; font-size:45px;">Choice</tspan><tspan x="0" y="90" style="font-family:'CenturyGothic'; font-size:45px;">Institute</tspan></text>
<g>
	<g>
		<g>
			<path class="st3" d="M259,3.7h33.9v6.6h-27.1v21.2h27.1v6.6h-27.1v33.2H259V3.7z"/>
			<path class="st3" d="M305.8,0.7c1.5,0,2.7,0.5,3.8,1.6c1,1,1.6,2.3,1.6,3.8c0,1.4-0.5,2.7-1.6,3.7c-1,1-2.3,1.6-3.8,1.6
				c-1.4,0-2.7-0.5-3.7-1.6c-1-1-1.6-2.3-1.6-3.7c0-1.5,0.5-2.7,1.6-3.8C303.1,1.2,304.4,0.7,305.8,0.7z M302.6,21.3h6.4v50h-6.4
				V21.3z"/>
			<path class="st3" d="M320,21.3h6.6v7.3c2-2.9,4-5,6.2-6.5c2.2-1.4,4.4-2.1,6.8-2.1c1.8,0,3.7,0.6,5.7,1.7l-3.4,5.4
				c-1.3-0.6-2.5-0.9-3.4-0.9c-2.1,0-4.2,0.9-6.2,2.6c-2,1.8-3.5,4.5-4.6,8.2c-0.8,2.9-1.2,8.6-1.2,17.3v16.9H320V21.3z"/>
			<path class="st3" d="M375.9,26.8l-4.1,4.3c-3.4-3.3-6.8-5-10.1-5c-2.1,0-3.9,0.7-5.4,2.1c-1.5,1.4-2.2,3-2.2,4.8
				c0,1.6,0.6,3.2,1.8,4.6c1.2,1.5,3.8,3.3,7.7,5.3c4.8,2.5,8,4.9,9.8,7.2c1.7,2.3,2.5,5,2.5,7.9c0,4.1-1.4,7.6-4.3,10.4
				c-2.9,2.9-6.5,4.3-10.8,4.3c-2.9,0-5.6-0.6-8.3-1.9s-4.8-3-6.5-5.2l4-4.6c3.3,3.7,6.8,5.6,10.5,5.6c2.6,0,4.8-0.8,6.6-2.5
				c1.8-1.7,2.7-3.6,2.7-5.8c0-1.8-0.6-3.5-1.8-4.9c-1.2-1.4-3.9-3.2-8.1-5.3c-4.5-2.3-7.6-4.6-9.2-6.9c-1.6-2.3-2.4-4.9-2.4-7.8
				c0-3.8,1.3-7,3.9-9.5c2.6-2.5,5.9-3.8,9.8-3.8C366.6,20,371.3,22.3,375.9,26.8z"/>
			<path class="st3" d="M393,2.7h6.4v18.6h10.2v5.6h-10.2v44.5H393V26.9h-8.8v-5.6h8.8V2.7z"/>
		</g>
		<g>
			<path class="st3" d="M325.1,110.5l-5.3,4.1c-2.9-3.8-6.5-6.7-10.6-8.7c-4.1-2-8.7-3-13.6-3c-5.4,0-10.4,1.3-15,3.9
				c-4.6,2.6-8.2,6.1-10.7,10.4c-2.5,4.4-3.8,9.3-3.8,14.7c0,8.2,2.8,15.1,8.5,20.7c5.7,5.5,12.8,8.3,21.4,8.3
				c9.5,0,17.4-3.7,23.8-11.1l5.3,4c-3.4,4.3-7.6,7.6-12.6,10c-5,2.3-10.7,3.5-16.9,3.5c-11.8,0-21.2-3.9-28-11.8
				c-5.7-6.7-8.6-14.7-8.6-24.1c0-9.9,3.5-18.2,10.4-25c6.9-6.8,15.6-10.1,26.1-10.1c6.3,0,12,1.2,17.1,3.7
				C317.7,102.5,321.9,106,325.1,110.5z"/>
			<path class="st3" d="M337.6,96.2h6.4v28.3c2.6-3.4,5.5-6,8.6-7.7c3.1-1.7,6.5-2.6,10.2-2.6c3.7,0,7.1,1,10,2.9
				c2.9,1.9,5,4.5,6.4,7.7c1.4,3.2,2.1,8.2,2.1,15.1v25.8h-6.4v-23.9c0-5.8-0.2-9.6-0.7-11.5c-0.8-3.3-2.2-5.8-4.3-7.5
				c-2.1-1.7-4.9-2.5-8.3-2.5c-3.9,0-7.4,1.3-10.5,3.9c-3.1,2.6-5.1,5.8-6.1,9.6c-0.6,2.5-0.9,7-0.9,13.6v18.4h-6.4V96.2z"/>
			<path class="st3" d="M418.8,114.2c7.7,0,14.1,2.8,19.2,8.4c4.6,5.1,6.9,11.1,6.9,18.1c0,7-2.4,13.1-7.3,18.3
				c-4.9,5.2-11.1,7.8-18.8,7.8c-7.7,0-14-2.6-18.8-7.8c-4.9-5.2-7.3-11.3-7.3-18.3c0-6.9,2.3-12.9,6.9-18
				C404.6,117,411,114.2,418.8,114.2z M418.7,120.5c-5.4,0-10,2-13.8,5.9c-3.8,4-5.8,8.7-5.8,14.3c0,3.6,0.9,7,2.6,10.1
				c1.8,3.1,4.1,5.5,7.1,7.2c3,1.7,6.3,2.6,9.8,2.6s6.8-0.9,9.8-2.6c3-1.7,5.4-4.1,7.1-7.2c1.8-3.1,2.6-6.5,2.6-10.1
				c0-5.6-1.9-10.4-5.8-14.3S424.1,120.5,418.7,120.5z"/>
			<path class="st3" d="M459,94.9c1.5,0,2.7,0.5,3.8,1.6c1,1,1.6,2.3,1.6,3.8c0,1.4-0.5,2.7-1.6,3.7c-1,1-2.3,1.6-3.8,1.6
				c-1.4,0-2.7-0.5-3.7-1.6c-1-1-1.6-2.3-1.6-3.7c0-1.5,0.5-2.7,1.6-3.8C456.3,95.4,457.5,94.9,459,94.9z M455.8,115.5h6.4v50h-6.4
				V115.5z"/>
			<path class="st3" d="M524.2,125.9l-5.1,3.2c-4.4-5.9-10.4-8.8-18.1-8.8c-6.1,0-11.2,2-15.2,5.9c-4,3.9-6,8.7-6,14.3
				c0,3.6,0.9,7.1,2.8,10.3c1.9,3.2,4.4,5.7,7.6,7.5c3.2,1.8,6.9,2.7,10.9,2.7c7.3,0,13.4-2.9,18-8.8l5.1,3.4
				c-2.4,3.6-5.6,6.4-9.6,8.4c-4,2-8.6,3-13.8,3c-7.9,0-14.5-2.5-19.7-7.5c-5.2-5-7.8-11.1-7.8-18.4c0-4.8,1.2-9.3,3.7-13.5
				c2.4-4.2,5.8-7.4,10.1-9.7c4.3-2.3,9-3.5,14.3-3.5c3.3,0,6.5,0.5,9.6,1.5c3.1,1,5.7,2.3,7.8,4
				C520.8,121.3,522.7,123.4,524.2,125.9z"/>
			<path class="st3" d="M578.7,149l5.4,2.9c-1.8,3.5-3.8,6.3-6.2,8.5c-2.3,2.1-5,3.8-7.9,4.9c-2.9,1.1-6.2,1.7-9.9,1.7
				c-8.2,0-14.5-2.7-19.1-8s-6.9-11.4-6.9-18.1c0-6.3,1.9-12,5.8-17c4.9-6.3,11.6-9.5,19.8-9.5c8.5,0,15.3,3.2,20.4,9.7
				c3.6,4.6,5.5,10.3,5.5,17.1h-45c0.1,5.8,2,10.6,5.6,14.3c3.6,3.7,8,5.6,13.3,5.6c2.5,0,5-0.4,7.4-1.3c2.4-0.9,4.5-2.1,6.1-3.5
				C574.9,154.6,576.7,152.2,578.7,149z M578.7,135.5c-0.9-3.4-2.1-6.2-3.8-8.2c-1.6-2.1-3.8-3.7-6.5-5c-2.7-1.3-5.5-1.9-8.5-1.9
				c-4.9,0-9.1,1.6-12.7,4.7c-2.6,2.3-4.5,5.7-5.9,10.3H578.7z"/>
		</g>
		<g>
			<path class="st3" d="M259,192.1h6.8v67.7H259V192.1z"/>
			<path class="st3" d="M280.2,209.7h6.4v9c2.6-3.4,5.4-6,8.6-7.7c3.1-1.7,6.5-2.6,10.2-2.6c3.7,0,7.1,1,10,2.9
				c2.9,1.9,5,4.5,6.4,7.7c1.4,3.2,2.1,8.2,2.1,15v25.8h-6.4v-23.9c0-5.8-0.2-9.6-0.7-11.5c-0.7-3.3-2.2-5.8-4.3-7.5
				c-2.1-1.7-4.9-2.5-8.3-2.5c-3.9,0-7.4,1.3-10.5,3.9c-3.1,2.6-5.1,5.8-6.1,9.6c-0.6,2.5-0.9,7-0.9,13.6v18.4h-6.4V209.7z"/>
			<path class="st3" d="M362.8,215.2l-4.1,4.3c-3.4-3.3-6.8-5-10.1-5c-2.1,0-3.9,0.7-5.4,2.1c-1.5,1.4-2.2,3-2.2,4.8
				c0,1.6,0.6,3.2,1.8,4.6c1.2,1.5,3.8,3.3,7.7,5.3c4.8,2.5,8,4.9,9.8,7.2c1.7,2.3,2.5,5,2.5,7.9c0,4.1-1.4,7.6-4.3,10.4
				c-2.9,2.8-6.5,4.3-10.8,4.3c-2.9,0-5.6-0.6-8.3-1.9c-2.6-1.3-4.8-3-6.5-5.2l4-4.6c3.3,3.7,6.8,5.6,10.5,5.6
				c2.6,0,4.8-0.8,6.6-2.5c1.8-1.7,2.7-3.6,2.7-5.8c0-1.8-0.6-3.5-1.8-4.9c-1.2-1.4-3.9-3.2-8.1-5.3c-4.5-2.3-7.6-4.6-9.2-6.9
				c-1.6-2.3-2.4-4.9-2.4-7.8c0-3.8,1.3-7,3.9-9.5c2.6-2.5,5.9-3.8,9.8-3.8C353.5,208.4,358.1,210.7,362.8,215.2z"/>
			<path class="st3" d="M379.8,191.1h6.4v18.6h10.2v5.6h-10.2v44.5h-6.4v-44.5H371v-5.6h8.8V191.1z"/>
			<path class="st3" d="M408.3,189.1c1.5,0,2.7,0.5,3.8,1.6c1,1,1.6,2.3,1.6,3.8c0,1.4-0.5,2.7-1.6,3.7c-1,1-2.3,1.6-3.8,1.6
				c-1.4,0-2.7-0.5-3.7-1.6c-1-1-1.6-2.3-1.6-3.7c0-1.5,0.5-2.7,1.6-3.8C405.7,189.6,406.9,189.1,408.3,189.1z M405.1,209.7h6.4v50
				h-6.4V209.7z"/>
			<path class="st3" d="M430.6,191.1h6.4v18.6h10.2v5.6H437v44.5h-6.4v-44.5h-8.8v-5.6h8.8V191.1z"/>
			<path class="st3" d="M456.1,209.7h6.4v23.4c0,5.7,0.3,9.6,0.9,11.8c0.9,3.1,2.7,5.5,5.3,7.3c2.6,1.8,5.7,2.7,9.3,2.7
				s6.6-0.9,9.1-2.6c2.5-1.7,4.2-4,5.2-6.8c0.6-1.9,1-6,1-12.3v-23.4h6.6v24.6c0,6.9-0.8,12.1-2.4,15.6c-1.6,3.5-4,6.2-7.3,8.2
				c-3.2,2-7.3,3-12.2,3c-4.9,0-8.9-1-12.2-3c-3.3-2-5.7-4.7-7.3-8.3c-1.6-3.5-2.4-8.9-2.4-16V209.7z"/>
			<path class="st3" d="M519.8,191.1h6.4v18.6h10.2v5.6h-10.2v44.5h-6.4v-44.5H511v-5.6h8.8V191.1z"/>
			<path class="st3" d="M588.2,243.2l5.4,2.8c-1.8,3.5-3.8,6.3-6.2,8.5c-2.3,2.1-5,3.8-7.9,4.9c-2.9,1.1-6.2,1.7-9.9,1.7
				c-8.2,0-14.5-2.7-19.1-8c-4.6-5.4-6.9-11.4-6.9-18.1c0-6.3,1.9-12,5.8-17c4.9-6.3,11.6-9.5,19.8-9.5c8.5,0,15.3,3.2,20.4,9.7
				c3.6,4.6,5.5,10.3,5.5,17.1h-45c0.1,5.8,2,10.6,5.6,14.3s8,5.6,13.3,5.6c2.5,0,5-0.4,7.4-1.3c2.4-0.9,4.5-2.1,6.1-3.5
				C584.4,248.8,586.2,246.4,588.2,243.2z M588.2,229.7c-0.9-3.4-2.1-6.2-3.8-8.2c-1.6-2.1-3.8-3.7-6.5-5c-2.7-1.3-5.5-1.9-8.5-1.9
				c-4.9,0-9.1,1.6-12.7,4.7c-2.6,2.3-4.5,5.8-5.9,10.3H588.2z"/>
		</g>
	</g>
	<path class="st3" d="M21,61.7h34.3V41.3H21V21h34.3V0.7H1.1c0,0-1.9,59.3-0.7,111.2H21V61.7z"/>
	<path class="st3" d="M123.1,0.3c-2.3,0-4.6,0.1-6.8,0.4h13.7C127.7,0.5,125.4,0.3,123.1,0.3z"/>
	<path class="st3" d="M73.7,27.7c-4.8,8.2-7.2,17.6-7.2,28.2c0,16.3,5.3,29.8,15.8,40.2c10.5,10.5,24,15.7,40.5,15.7
		c8.9,0,16.9-1.5,23.9-4.4c7-3,14.4-8.3,22.2-15.9l-13.7-14.3c-5.8,5.8-11.1,9.8-16,11.9c-4.9,2.2-10.2,3.3-16.1,3.3
		c-6.9,0-13.1-1.6-18.7-4.7c-5.6-3.1-10-7.4-13-12.9c-3.1-5.5-4.6-11.8-4.6-18.8c0-10.2,3.5-18.7,10.4-25.6
		c6.9-6.9,15.5-10.4,25.6-10.4c12,0,22.8,5.1,32.4,15.2l14.1-13.5c-5.9-6.8-12.9-12.1-21-15.8c-6-2.7-12.1-4.4-18.4-5.1h-13.7
		c-7.7,0.9-15.1,3.2-22,7.1C85.3,12.8,78.5,19.4,73.7,27.7z"/>
	<path class="st3" d="M200.4,0.7h-19.9v111.2h20.6C202.3,60,200.4,0.7,200.4,0.7z"/>
	<g>
		<g>
			<rect x="192.4" y="111.1" class="st4" width="2.5" height="0.8"/>
			<rect x="180.5" y="111.1" class="st4" width="1.5" height="0.8"/>
			<path class="st4" d="M101.3,261h0.2v-0.1C101.3,261,101.3,261,101.3,261z"/>
		</g>
		<path class="st4" d="M0.4,111.9c0.6,27.4,2.1,52.8,5.1,66.3c0.9,4,2.6,8.1,5,12.1v-78.4H0.4z"/>
		<path class="st4" d="M13,111.9v82.4c2.9,4.2,6.5,8.4,10.5,12.5v-95.7H21v0.8H13z"/>
		<path class="st4" d="M36.5,218.9V111.1H26v98.3C29.3,212.7,32.8,215.8,36.5,218.9z"/>
		<path class="st4" d="M49.5,229.1v-118H39V221C42.4,223.8,45.9,226.5,49.5,229.1z"/>
		<path class="st4" d="M62.5,238.2V111.1H52v119.8C55.5,233.5,59,235.9,62.5,238.2z"/>
		<path class="st4" d="M75.5,246.6V111.1H65v128.8C68.6,242.3,72.1,244.5,75.5,246.6z"/>
		<path class="st4" d="M88.5,254.3V111.1H78v137C81.8,250.5,85.4,252.6,88.5,254.3z"/>
		<path class="st4" d="M100.2,261h1.1c0,0,0,0,0.2-0.1V111.1H91v144.6C96.9,259.1,100.4,261,100.2,261z"/>
		<path class="st4" d="M114.5,253.5V111.2c-0.3,0-0.7-0.1-1-0.1H104v148.3C106.3,258.2,109.9,256.2,114.5,253.5z"/>
		<path class="st4" d="M122.8,111.8c-2,0-3.9-0.1-5.8-0.3V252c3.2-1.9,6.7-4,10.5-6.3V111.6C125.9,111.7,124.4,111.8,122.8,111.8z"
			/>
		<path class="st4" d="M130,244.1c3.4-2.1,6.9-4.4,10.5-6.8V111.1h-8.2c-0.8,0.1-1.5,0.2-2.3,0.2V244.1z"/>
		<path class="st4" d="M153.4,228.1V111.1H143v124.4C146.5,233.2,150,230.7,153.4,228.1z"/>
		<path class="st4" d="M166.4,217.7V111.1H156v115C159.6,223.4,163.1,220.6,166.4,217.7z"/>
		<path class="st4" d="M179.4,205.4v-94.3H169v104.4C172.7,212.2,176.2,208.8,179.4,205.4z"/>
		<path class="st4" d="M182,111.9v90.7c4.3-4.9,7.9-9.8,10.5-14.8v-75.9H182z"/>
		<path class="st4" d="M196.1,178.3c3-13.5,4.5-38.9,5.1-66.3H195V182C195.4,180.8,195.8,179.5,196.1,178.3z"/>
	</g>
</g>
</svg>
