<svg xmlns="http://www.w3.org/2000/svg" width="18" height="18" viewBox="0 0 18 18">
    <path fill="#FFF" d="M16.364 0H1.636C.732 0 0 .732 0 1.636v14.728C0 17.268.732 18 1.636 18h14.728c.904 0 1.636-.732 1.636-1.636V1.636C18 .732 17.268 0 16.364 0zM5.69 14.727H3.276V6.961H5.69v7.766zM4.458 5.851c-.778 0-1.407-.631-1.407-1.407 0-.777.63-1.407 1.407-1.407.776 0 1.407.63 1.407 1.407 0 .776-.631 1.407-1.407 1.407zm10.273 8.876h-2.412v-3.776c0-.901-.017-2.06-1.255-2.06-1.256 0-1.449.981-1.449 1.994v3.842H7.203V6.961H9.52v1.061h.032c.323-.61 1.11-1.254 2.284-1.254 2.444 0 2.896 1.609 2.896 3.7v4.26z"/>
</svg>
