<svg xmlns="http://www.w3.org/2000/svg" xmlns:xlink="http://www.w3.org/1999/xlink" width="1440" height="840" viewBox="0 0 1440 840">
    <defs>
        <linearGradient id="prefix__b" x1="37.103%" x2="64.511%" y1="30.444%" y2="102.288%">
            <stop offset="0%" stop-color="#F1E8EA"/>
            <stop offset="65.591%" stop-color="#E8CCD2"/>
            <stop offset="100%" stop-color="#E8D5DA"/>
        </linearGradient>
        <linearGradient id="prefix__d" x1="37.151%" x2="64.511%" y1="30.569%" y2="102.288%">
            <stop offset=".087%" stop-color="#F1E8EA"/>
            <stop offset="65.591%" stop-color="#E8CCD2"/>
            <stop offset="100%" stop-color="#E8D5DA"/>
        </linearGradient>
        <path id="prefix__a" d="M0 0H1440V840H0z"/>
    </defs>
    <g fill="none" fill-rule="evenodd">
        <mask id="prefix__c" fill="#fff">
            <use xlink:href="#prefix__a"/>
        </mask>
        <use fill="#751936" opacity=".1" xlink:href="#prefix__a"/>
        <path fill="url(#prefix__b)" d="M1462.718-267h.714c6.918.01 50.836.262 66.166.278h1.364c1.273-.05 3.567.978 4.216 1.856 2.585 3.416 1.67 20.08 1.646 20.5v711.479c0 2.282-.674 4.914-2.32 5.641-1.097.451-2.843.226-3.766-.225-2.817-1.393-6.01-3.918-8.663-5.778l-.277-.192c2.174 1.486-59.766-42.269-67.857-49.615-1.322-1.179-2.768-3.586-3.068-5.641-.63-4.303-.692-13.147-.697-14.818l-.001-646.534s-.848-9.677 1.197-12.711c2.91-4.4 5.94-4.248 11.346-4.24zm164.536 0c5.428-.008 8.433-.16 11.367 4.24 2.07 3.034 1.197 12.711 1.197 12.711v646.383c-.003 1.185-.047 10.512-.723 14.969-.3 2.055-1.72 4.462-3.018 5.64-8.279 7.497-72.59 52.903-67.703 49.468l-.047.033-.436.307c-2.45 1.744-5.427 4.072-8.09 5.504l-.53.274c-.947.45-2.692.676-3.765.225-1.646-.727-2.319-3.36-2.319-5.641v-711.478c-.025-.422-.964-17.085 1.621-20.501.648-.878 2.943-1.906 4.214-1.856h1.367c15.347-.016 59.234-.267 66.15-.278zm-267.524-2h.715c7.135.011 53.618.28 67.526.28 1.272-.051 3.541.98 4.215 1.859 2.56 3.424 1.67 20.125 1.646 20.547v640.396c-.025 2.286-.699 4.925-2.345 5.654-1.097.477-2.818.251-3.74-.226-2.969-1.483-6.41-4.197-9.13-6.132 4.914 3.468-59.407-42.066-67.713-49.554-1.322-1.181-2.718-3.569-3.017-5.654-.642-4.258-.695-12.847-.699-14.732V-252.01s-.873-9.7 1.147-12.74c2.96-4.41 5.99-4.258 11.395-4.25zm368.53 0c5.451-.008 8.458-.16 11.392 4.25 2.02 3.04 1.172 12.74 1.172 12.74v575.558c-.006 2.086-.065 10.441-.673 14.622-.35 2.085-1.796 4.473-3.043 5.654-8.306 7.488-72.628 53.022-67.715 49.554-2.743 1.935-6.16 4.649-9.128 6.132-.923.477-2.644.703-3.766.226-1.621-.729-2.32-3.368-2.32-5.654v-640.396c-.024-.422-.94-17.123 1.621-20.547.674-.88 2.943-1.91 4.24-1.86 13.883 0 60.367-.268 67.502-.279zm-469.526 2h.714c6.916.01 50.8.262 66.147.278h1.367c1.297-.05 3.566.978 4.24 1.856 2.56 3.416 1.644 20.08 1.62 20.501v566.456c0 2.256-.673 4.914-2.344 5.641-1.072.502-2.818.226-3.74-.225-2.943-1.48-6.409-4.188-9.152-6.118 4.912 3.435-59.398-41.972-67.652-49.444-1.297-1.178-2.768-3.56-3.042-5.667-.653-4.302-.716-13.126-.723-14.793v-501.533s-.823-9.678 1.172-12.712c2.958-4.4 5.988-4.248 11.393-4.24zm570.535 0c5.406-.008 8.437-.16 11.397 4.24 2.02 3.034 1.147 12.712 1.147 12.712v501.45c.003 1.434-.01 10.497-.698 14.876-.3 2.107-1.722 4.489-3.019 5.667-8.306 7.472-72.614 52.879-67.7 49.444-2.72 1.93-6.187 4.638-9.155 6.118-.923.45-2.644.727-3.742.225-1.646-.727-2.32-3.385-2.32-5.641v-566.456c-.024-.42-.94-17.085 1.622-20.501.673-.878 2.943-1.906 4.215-1.856h1.367c15.353-.016 59.253-.267 66.171-.278zm102.018-2c5.404-.008 8.433-.16 11.342 4.252 2.045 3.043 1.197 12.75 1.197 12.75v430.265c-.006 1.669-.067 10.5-.698 14.837-.324 2.087-1.72 4.476-3.067 5.683-8.113 7.344-70.012 51.226-67.838 49.736l.057-.04-.337.237c-2.507 1.766-5.467 4.082-8.129 5.516l-.528.274c-.947.453-2.643.704-3.74.251-1.67-.729-2.344-3.394-2.369-5.682V-246.3c-.023-.417-.94-17.134 1.646-20.56.673-.881 2.967-1.912 4.214-1.862h.893c14.916-.01 59.655-.268 66.643-.279zm-772.567 0h.714c6.99.011 51.74.268 66.637.279h.892c1.272-.05 3.566.981 4.215 1.861 2.586 3.427 1.67 20.144 1.646 20.561V249.08c0 2.288-.674 4.953-2.32 5.682-1.097.453-2.843.202-3.766-.251-2.793-1.396-6.006-3.906-8.641-5.79l-.441-.313.08.056c3.506 2.45-59.62-42.257-67.793-49.676-1.346-1.207-2.768-3.596-3.067-5.683-.642-4.415-.694-13.485-.698-14.92v-430.183s-.849-9.706 1.171-12.749c2.935-4.413 5.965-4.26 11.37-4.252zm-100.981 105h.715c7.157.01 53.629.23 67.508.23 1.272 0 3.566 1.006 4.24 1.886 2.56 3.428 1.644 20.151 1.62 20.569v318.384c0 2.289-.673 4.955-2.344 5.684-1.047.453-2.793.227-3.715-.226-2.992-1.51-6.433-4.251-9.151-6.163 4.912 3.446-59.369-42.083-67.672-49.604-1.322-1.182-2.743-3.597-3.042-5.685-.653-4.294-.716-13.143-.723-14.816v-253.226s-.848-9.735 1.197-12.779c2.933-4.438 5.962-4.263 11.367-4.254zm972.498-105c5.406-.008 8.46-.16 11.393 4.248 2.044 3.04 1.196 12.711 1.196 12.711V106.36c-.006 1.67-.07 10.509-.723 14.797-.299 2.085-1.745 4.497-3.067 5.677-8.278 7.486-72.584 52.98-67.647 49.539-2.743 1.91-6.134 4.647-9.15 6.155-.923.452-2.669.678-3.716.226-1.67-.729-2.344-3.392-2.344-5.678v-423.422c-.024-.422-.94-17.093 1.62-20.516.674-.88 2.943-1.91 4.24-1.91 13.928 0 60.353-.219 67.484-.228z" mask="url(#prefix__c)" opacity=".5" transform="rotate(29 1544 101.999)"/>
        <path fill="url(#prefix__d)" d="M102.718 233h.714c6.918.01 50.836.262 66.166.278h1.364c1.273-.05 3.567.978 4.216 1.856 2.585 3.416 1.67 20.08 1.646 20.5v711.479c0 2.282-.674 4.914-2.32 5.641-1.097.451-2.843.226-3.766-.225-2.817-1.393-6.01-3.918-8.663-5.778l-.277-.192c2.174 1.486-59.766-42.269-67.857-49.615-1.322-1.179-2.768-3.586-3.068-5.641-.63-4.303-.692-13.147-.697-14.818l-.001-646.534s-.848-9.677 1.197-12.711c2.91-4.4 5.94-4.248 11.346-4.24zm164.536 0c5.428-.008 8.433-.16 11.367 4.24 2.07 3.034 1.197 12.711 1.197 12.711v646.383c-.003 1.185-.047 10.512-.723 14.969-.3 2.055-1.72 4.462-3.018 5.64-8.279 7.497-72.59 52.903-67.703 49.468l-.047.033-.436.307c-2.45 1.744-5.427 4.072-8.09 5.504l-.53.274c-.947.45-2.692.676-3.765.225-1.646-.727-2.319-3.36-2.319-5.641V255.635c-.025-.422-.964-17.085 1.621-20.501.648-.878 2.943-1.906 4.214-1.856h1.367c15.347-.016 59.234-.267 66.15-.278zM-.27 231h.715c7.135.011 53.618.28 67.526.28 1.272-.051 3.541.98 4.215 1.859 2.56 3.424 1.67 20.125 1.646 20.547v640.396c-.025 2.286-.699 4.925-2.345 5.654-1.097.477-2.818.251-3.74-.226-2.969-1.483-6.41-4.197-9.13-6.132 4.914 3.468-59.407-42.066-67.713-49.554-1.322-1.181-2.718-3.569-3.017-5.654-.642-4.258-.695-12.847-.699-14.732V247.99s-.873-9.7 1.147-12.74c2.96-4.41 5.99-4.258 11.395-4.25zm368.53 0c5.451-.008 8.458-.16 11.392 4.25 2.02 3.04 1.172 12.74 1.172 12.74v575.558c-.006 2.086-.065 10.441-.673 14.622-.35 2.085-1.796 4.473-3.043 5.654-8.306 7.488-72.628 53.022-67.715 49.554-2.743 1.935-6.16 4.649-9.128 6.132-.923.477-2.644.703-3.766.226-1.621-.729-2.32-3.368-2.32-5.654V253.686c-.024-.422-.94-17.123 1.621-20.547.674-.88 2.943-1.91 4.24-1.86 13.883 0 60.367-.268 67.502-.279zm-469.526 2h.714c6.916.01 50.8.262 66.147.278h1.367c1.297-.05 3.566.978 4.24 1.856 2.56 3.416 1.644 20.08 1.62 20.501v566.456c0 2.256-.673 4.914-2.344 5.641-1.072.502-2.818.226-3.74-.225-2.943-1.48-6.41-4.188-9.152-6.118 4.912 3.435-59.398-41.972-67.652-49.444-1.297-1.178-2.768-3.56-3.042-5.667-.653-4.302-.716-13.126-.723-14.793V249.952s-.823-9.678 1.172-12.712c2.958-4.4 5.988-4.248 11.393-4.24zm570.535 0c5.406-.008 8.437-.16 11.397 4.24 2.02 3.034 1.147 12.712 1.147 12.712v501.45c.003 1.434-.01 10.497-.698 14.876-.3 2.107-1.722 4.489-3.019 5.667-8.306 7.472-72.614 52.879-67.7 49.444-2.72 1.93-6.187 4.638-9.155 6.118-.923.45-2.644.727-3.742.225-1.646-.727-2.32-3.385-2.32-5.641V255.635c-.024-.42-.94-17.085 1.622-20.501.673-.878 2.943-1.906 4.215-1.856h1.367c15.353-.016 59.253-.267 66.171-.278zm102.018-2c5.404-.008 8.433-.16 11.342 4.252 2.045 3.043 1.197 12.75 1.197 12.75v430.265c-.006 1.669-.067 10.5-.698 14.837-.324 2.087-1.72 4.476-3.067 5.683-8.113 7.344-70.012 51.226-67.838 49.736l.057-.04-.337.237c-2.507 1.766-5.467 4.082-8.129 5.516l-.528.274c-.947.453-2.643.704-3.74.251-1.67-.729-2.344-3.394-2.369-5.682V253.7c-.023-.417-.94-17.134 1.646-20.56.673-.881 2.967-1.912 4.214-1.862h.893c14.916-.01 59.655-.268 66.643-.279zm-772.567 0h.714c6.99.011 51.74.268 66.637.279h.892c1.272-.05 3.566.981 4.215 1.861 2.586 3.427 1.67 20.144 1.646 20.561V749.08c0 2.288-.674 4.953-2.32 5.682-1.097.453-2.843.202-3.766-.251-2.793-1.396-6.006-3.906-8.641-5.79l-.441-.313.08.056c3.506 2.45-59.62-42.257-67.793-49.676-1.346-1.207-2.768-3.596-3.067-5.683-.642-4.415-.694-13.485-.698-14.92V248.002s-.849-9.706 1.171-12.749c2.935-4.413 5.965-4.26 11.37-4.252zm-100.981 105h.715c7.157.01 53.629.23 67.508.23 1.272 0 3.566 1.006 4.24 1.886 2.56 3.428 1.644 20.151 1.62 20.569v318.384c0 2.289-.673 4.955-2.344 5.684-1.047.453-2.793.227-3.715-.226-2.992-1.51-6.433-4.251-9.151-6.163 4.912 3.446-59.369-42.083-67.672-49.604-1.322-1.182-2.743-3.597-3.042-5.685-.653-4.294-.716-13.143-.723-14.816V353.033s-.848-9.735 1.197-12.779c2.933-4.438 5.962-4.263 11.367-4.254zm972.498-105c5.406-.008 8.46-.16 11.393 4.248 2.044 3.04 1.196 12.711 1.196 12.711V606.36c-.006 1.67-.07 10.509-.723 14.797-.299 2.085-1.745 4.497-3.067 5.677-8.278 7.486-72.584 52.98-67.647 49.539-2.743 1.91-6.134 4.647-9.15 6.155-.923.452-2.669.678-3.716.226-1.67-.729-2.344-3.392-2.344-5.678V253.654c-.024-.422-.94-17.093 1.62-20.516.674-.88 2.943-1.91 4.24-1.91 13.928 0 60.353-.219 67.484-.228z" mask="url(#prefix__c)" opacity=".5" transform="rotate(29 184 601.999)"/>
    </g>
</svg>
