<svg xmlns="http://www.w3.org/2000/svg" width="18" height="15" viewBox="0 0 18 15">
    <path fill="#FFF" d="M18 1.781c-.503.75-1.13 1.418-1.85 1.957.011.164.011.328.011.492C16.161 9.234 12.45 15 5.665 15c-2.09 0-4.032-.621-5.665-1.7.297.036.582.048.89.048 1.725 0 3.313-.598 4.58-1.618-1.621-.035-2.98-1.125-3.448-2.625.228.036.456.06.696.06.331 0 .663-.048.971-.13C2 8.684.731 7.16.731 5.32v-.047c.491.282 1.062.457 1.667.48C1.405 5.075.754 3.915.754 2.603c0-.704.183-1.348.502-1.91 1.816 2.296 4.546 3.796 7.607 3.96-.057-.28-.091-.574-.091-.867C8.772 1.7 10.416 0 12.46 0c1.062 0 2.021.457 2.695 1.195.834-.164 1.633-.48 2.341-.914-.274.88-.856 1.617-1.621 2.086.742-.082 1.462-.293 2.124-.586z"/>
</svg>
